<svg height="120" viewBox="0 0 120 120" width="120" xmlns="http://www.w3.org/2000/svg"><path d="m93.2064632 92c7.4685818 0 11.2986238-3.8300419 11.2986238-11.1837223v-41.594255c0-7.3919808-3.830042-11.2220227-11.2986238-11.2220227h-66.4129264c-7.4685817 0-11.2986236 3.7917415-11.2986236 11.2220227v41.594255c0 7.3919808 3.8300419 11.1837223 11.2986236 11.1837223zm-46.994614-32.7468582h-25.967684v-19.8013165c0-4.4045482 2.3363255-6.7025734 6.6259724-6.7025734h31.2531419v15.0903651c-2.4895273-5.5152603-7.2770796-9.1921005-12.3327349-9.1921005-5.1705566 0-8.9239976 3.753441-8.9239976 9.1538001 0 5.0556553 4.0981448 9.2687014 9.3453022 11.4518252zm53.5439856 0h-26.0059844c5.2471574-2.1831238 9.3453022-6.3961699 9.3453022-11.4518252 0-5.4003591-3.7534411-9.1538001-8.9239976-9.1538001-5.0556553 0-9.8432077 3.6768402-12.3327349 9.1921005v-15.0903651h31.2531418c4.2513465 0 6.6642729 2.2980252 6.6642729 6.7025734zm-42.2070616-.3830042h-1.1490126c-8.0813884 0-15.3201675-5.4769599-15.3201675-10.7624177 0-3.1789347 1.9916217-5.2088569 4.940754-5.2088569 5.9748653 0 11.5284261 7.0089766 11.5284261 14.9371633zm6.0131658 0h-1.1490126v-1.0341113c0-7.9281867 5.5535607-14.9371633 11.5284261-14.9371633 2.9491322 0 4.940754 2.0299222 4.940754 5.2088569 0 5.2854578-7.2387792 10.7624177-15.3201675 10.7624177zm29.5296229 28.3806105h-31.2531418v-22.214243h.2298025c3.6002394 9.0388988 13.1370437 15.5499701 18.7289049 16.545781 1.7235188.2681029 2.7959305-.9958109 2.7959305-2.3363256 0-1.4554159-.8426092-2.4129264-2.566128-2.6044285-5.1322562-.6511071-13.3285458-7.8515859-16.3542789-13.9796529h35.0831837v17.8862956c0 4.4428486-2.4129264 6.7025734-6.6642729 6.7025734zm-34.9682824 0h-31.2531419c-4.2896469 0-6.6259724-2.2597248-6.6259724-6.7025734v-17.8862956h35.0448833c-2.9874327 6.128067-11.2220228 13.3285458-16.3542789 13.9796529-1.7235189.1915021-2.5661281 1.1490126-2.5661281 2.6044285 0 1.3405147 1.0724118 2.6044285 2.7959306 2.3363256 5.5918612-.9958109 15.1286655-7.5068822 18.7289049-16.545781h.2298025z" fill="#1d1d1f"/></svg>